<svg xmlns="http://www.w3.org/2000/svg" width="37.548" height="40" viewBox="0 0 37.548 40"><defs><style>.a{fill:#005397;}</style></defs><g transform="translate(663.997 151.834)"><path class="a" d="M-662.9-103.791l4.184-4.184v-2.9a1.678,1.678,0,0,0,.693-1.359,1.632,1.632,0,0,0-1.626-1.626,1.583,1.583,0,0,0-1.625,1.626,1.534,1.534,0,0,0,.693,1.279v2.132L-663.411-106a29.076,29.076,0,0,1-.586-6.156v-1.279A34.458,34.458,0,0,0-649.98-120.1v2.638l-5.729,5.73v4.344l-4.45,4.45v1.626a1.534,1.534,0,0,0-.693,1.279,1.632,1.632,0,0,0,1.626,1.625,1.583,1.583,0,0,0,1.626-1.625,1.534,1.534,0,0,0-.693-1.279v-.853l2.638-2.638v1.972l2.825,2.825-2.132,2.132v4.1a1.534,1.534,0,0,0-.693,1.279,1.632,1.632,0,0,0,1.626,1.626,1.632,1.632,0,0,0,1.626-1.626,1.534,1.534,0,0,0-.693-1.279v-3.278l1.626-1.626,1.626,1.626v11.112A31.325,31.325,0,0,1-662.9-103.791" transform="translate(0 -28.11)"/><path class="a" d="M-446.918-110.959a1.534,1.534,0,0,0,.693-1.279,1.632,1.632,0,0,0-1.625-1.626,1.583,1.583,0,0,0-1.626,1.626,1.534,1.534,0,0,0,.693,1.279v2.9l4.184,4.184a31.51,31.51,0,0,1-12.9,17.935V-97.049l1.626-1.626,1.626,1.626V-93.8a1.534,1.534,0,0,0-.693,1.279,1.632,1.632,0,0,0,1.626,1.626,1.632,1.632,0,0,0,1.625-1.626,1.533,1.533,0,0,0-.693-1.279v-4.024l-2.212-2.212,2.825-2.825v-1.972l2.638,2.638v.853a1.534,1.534,0,0,0-.693,1.279,1.632,1.632,0,0,0,1.626,1.626,1.632,1.632,0,0,0,1.626-1.626,1.534,1.534,0,0,0-.693-1.279v-1.625l-4.45-4.45v-4.317l-5.729-5.729V-120.1a33.559,33.559,0,0,0,13.911,6.662v1.279a30.354,30.354,0,0,1-.586,6.236l-2.8-2.9Z" transform="translate(-182.915 -28.11)"/><path class="a" d="M-566.151-111.834v-18.974a1.534,1.534,0,0,0,.693-1.279,1.632,1.632,0,0,0-1.626-1.626,1.632,1.632,0,0,0-1.626,1.626,1.534,1.534,0,0,0,.693,1.279v18.974c-.693-.347-1.359-.693-2.052-1.013V-125.9l-5.73-5.756v-7.328l3.838-3.837v5.783a1.534,1.534,0,0,0-.693,1.279,1.632,1.632,0,0,0,1.626,1.626,1.632,1.632,0,0,0,1.625-1.626,1.534,1.534,0,0,0-.693-1.279v-12.738a21.3,21.3,0,0,0,2.052-2.052v8.1a1.534,1.534,0,0,0-.693,1.279,1.632,1.632,0,0,0,1.625,1.626,1.632,1.632,0,0,0,1.626-1.626,1.534,1.534,0,0,0-.693-1.279v-8.1c.693.693,1.279,1.359,2.052,2.052v12.658a1.534,1.534,0,0,0-.693,1.279,1.632,1.632,0,0,0,1.625,1.626,1.632,1.632,0,0,0,1.626-1.626,1.534,1.534,0,0,0-.693-1.279v-5.809l3.837,3.837v7.435l-5.73,5.73v13.058q-.959.519-2,1.039" transform="translate(-78.126 0)"/></g></svg>