<svg xmlns="http://www.w3.org/2000/svg" width="30" height="30" viewBox="0 0 30 30"><defs><style>.a{fill:#073d83;stroke:#073d83;stroke-width:2px;}.b{fill:#fff;}.c{stroke:none;}.d{fill:none;}</style></defs><g transform="translate(-610 -127)"><g class="a" transform="translate(610 127)"><circle class="c" cx="15" cy="15" r="15"/><circle class="d" cx="15" cy="15" r="14"/></g><path class="b" d="M-2.245-.235a.7.7,0,0,0,.99,0l8.05-8.05a.7.7,0,0,0,0-.99l-.99-.99a.7.7,0,0,0-.99,0L-1.75-3.7-4.815-6.765a.7.7,0,0,0-.99,0l-.99.99a.7.7,0,0,0,0,.99Z" transform="translate(625 147)"/></g></svg>