<svg xmlns="http://www.w3.org/2000/svg" width="171.283" height="55" viewBox="0 0 171.283 55"><defs><style>.a{fill:#fff;}</style></defs><g transform="translate(-11.6 -20.6)"><g transform="translate(11.6 20.6)"><g transform="translate(0)"><g transform="translate(142.423 12.186)"><path class="a" d="M556.961,67.3a14.15,14.15,0,0,1,5.2,5.25,14.585,14.585,0,0,1,1.9,7.426v11.7a2.521,2.521,0,0,1-.762,1.9,2.563,2.563,0,0,1-1.9.762,2.521,2.521,0,0,1-1.9-.762,2.563,2.563,0,0,1-.762-1.9V89.745a13.052,13.052,0,0,1-4.461,3.509,13.383,13.383,0,0,1-12.485-.626,13.143,13.143,0,0,1-4.815-5.223A15.674,15.674,0,0,1,535.2,79.98a14.916,14.916,0,0,1,1.877-7.426A13.641,13.641,0,0,1,542.3,67.3a14.527,14.527,0,0,1,7.371-1.9A14.229,14.229,0,0,1,556.961,67.3Zm-2.584,21.162a8.778,8.778,0,0,0,3.318-3.509,10.237,10.237,0,0,0,1.2-5,10.655,10.655,0,0,0-1.2-5.032,9.13,9.13,0,0,0-16.13,0,10.36,10.36,0,0,0-1.224,5.032,10.254,10.254,0,0,0,1.224,5,9.051,9.051,0,0,0,8.079,4.787A8.6,8.6,0,0,0,554.377,88.466Z" transform="translate(-535.2 -65.4)"/></g><g transform="translate(0 1.931)"><path class="a" d="M37.25,85.732a2.277,2.277,0,0,1-1.686.626H16.306a9.05,9.05,0,0,0,3.21,5.739,10,10,0,0,0,6.528,2.176A9.572,9.572,0,0,0,29.2,93.7a9.765,9.765,0,0,0,2.72-1.36,2.564,2.564,0,0,1,1.686-.544,2.113,2.113,0,0,1,1.523.517,2.284,2.284,0,0,1,.925,1.714,1.852,1.852,0,0,1-.816,1.523,13.615,13.615,0,0,1-4.3,2.23,15.518,15.518,0,0,1-4.9.87,15.333,15.333,0,0,1-7.453-1.8,12.825,12.825,0,0,1-5.141-5A14.276,14.276,0,0,1,11.6,84.59a14.86,14.86,0,0,1,1.741-7.263A12.928,12.928,0,0,1,18.21,72.3a13.879,13.879,0,0,1,7.072-1.8,12.819,12.819,0,0,1,6.746,1.714,11.157,11.157,0,0,1,4.352,4.815,16.023,16.023,0,0,1,1.523,7.1A2.111,2.111,0,0,1,37.25,85.732Zm-17.98-8.84a9.057,9.057,0,0,0-2.91,5.413H33.252a8.88,8.88,0,0,0-2.53-5.413,7.388,7.388,0,0,0-5.413-2.04A9,9,0,0,0,19.271,76.892Z" transform="translate(-11.6 -58.858)"/><path class="a" d="M150.828,28.407a2.544,2.544,0,0,1,.707,1.877V53.4a14.26,14.26,0,0,1-1.85,7.181,13.413,13.413,0,0,1-5.032,5.059,13.859,13.859,0,0,1-7.072,1.85,14.131,14.131,0,0,1-7.127-1.85,13.038,13.038,0,0,1-5.032-5.059A14.241,14.241,0,0,1,123.6,53.4a15.361,15.361,0,0,1,1.686-7.181,12.8,12.8,0,0,1,4.651-5.032,12.864,12.864,0,0,1,12.077-.6,12.179,12.179,0,0,1,4.3,3.4V30.284a2.458,2.458,0,0,1,.734-1.877,2.613,2.613,0,0,1,1.85-.707A2.567,2.567,0,0,1,150.828,28.407Zm-8.65,33.267a8.488,8.488,0,0,0,3.21-3.427,9.992,9.992,0,0,0,1.17-4.869,9.886,9.886,0,0,0-1.17-4.842,8.975,8.975,0,0,0-3.21-3.4,8.827,8.827,0,0,0-4.6-1.251,8.646,8.646,0,0,0-4.6,1.251,8.85,8.85,0,0,0-3.237,3.4,9.9,9.9,0,0,0-1.2,4.842,10.008,10.008,0,0,0,1.2,4.869,9.121,9.121,0,0,0,3.237,3.427,8.827,8.827,0,0,0,4.6,1.251A8.579,8.579,0,0,0,142.178,61.674Z" transform="translate(-93.135 -27.7)"/><path class="a" d="M280.4,85.732a2.277,2.277,0,0,1-1.686.626H259.479a9.05,9.05,0,0,0,3.21,5.739,10,10,0,0,0,6.528,2.176,11.005,11.005,0,0,0,5.9-1.931,2.564,2.564,0,0,1,1.686-.544,2.113,2.113,0,0,1,1.523.517,2.284,2.284,0,0,1,.925,1.714,1.852,1.852,0,0,1-.816,1.523,13.615,13.615,0,0,1-4.3,2.23,15.518,15.518,0,0,1-4.9.87,15.333,15.333,0,0,1-7.453-1.8,12.825,12.825,0,0,1-5.141-5,14.276,14.276,0,0,1-1.85-7.263,14.86,14.86,0,0,1,1.741-7.263A12.928,12.928,0,0,1,261.41,72.3a13.879,13.879,0,0,1,7.072-1.8,12.819,12.819,0,0,1,6.746,1.714,11.157,11.157,0,0,1,4.352,4.815,16.024,16.024,0,0,1,1.523,7.1A2.259,2.259,0,0,1,280.4,85.732Zm-17.953-8.84a9.057,9.057,0,0,0-2.91,5.413h16.892a8.88,8.88,0,0,0-2.53-5.413,7.388,7.388,0,0,0-5.413-2.04A9,9,0,0,0,262.443,76.892Z" transform="translate(-188.648 -58.858)"/></g><g transform="translate(98.548)"><path class="a" d="M453.432,20.6H442.361L427.7,41.028,442.28,61.4H453.35L438.8,41.028Z" transform="translate(-413.066 -20.6)"/><path class="a" d="M389.323,26.639,384.971,20.6H373.9l9.956,13.845Z" transform="translate(-373.9 -20.6)"/><path class="a" d="M374.3,132.162h11.071l4.9-6.827-5.685-7.535Z" transform="translate(-374.191 -91.361)"/></g></g></g><g transform="translate(46.526 66.107)"><path class="a" d="M143.727,198.7a.406.406,0,0,1,.082.272.332.332,0,0,1-.082.245.345.345,0,0,1-.245.109h-.245a2.106,2.106,0,0,1-1.088-.3,1.786,1.786,0,0,1-.734-.816,2.74,2.74,0,0,1-.272-1.17v-3.346H140.3a.309.309,0,0,1-.218-.082.332.332,0,0,1-.082-.245.38.38,0,0,1,.082-.245.226.226,0,0,1,.218-.082h.843v-1.958a.46.46,0,0,1,.082-.272.345.345,0,0,1,.245-.109.265.265,0,0,1,.245.109.406.406,0,0,1,.082.272v1.958h1.442a.309.309,0,0,1,.218.082.332.332,0,0,1,.082.245.38.38,0,0,1-.082.245.309.309,0,0,1-.218.082H141.8v3.346a1.521,1.521,0,0,0,.408,1.115,1.281,1.281,0,0,0,1.006.435h.245A.483.483,0,0,1,143.727,198.7Z" transform="translate(-140 -189.938)"/><path class="a" d="M163.189,191.028a2.561,2.561,0,0,1,.979,1.034,3.438,3.438,0,0,1,.354,1.632v3.21a.332.332,0,0,1-.082.245.345.345,0,0,1-.245.109.332.332,0,0,1-.245-.109.38.38,0,0,1-.082-.245v-3.21a2.335,2.335,0,0,0-.6-1.741,1.988,1.988,0,0,0-1.523-.6,2.339,2.339,0,0,0-1.061.245,1.845,1.845,0,0,0-.762.68,1.687,1.687,0,0,0-.272.952v3.645a.333.333,0,0,1-.082.245.345.345,0,0,1-.245.109.332.332,0,0,1-.245-.109.38.38,0,0,1-.082-.245v-8.6a.46.46,0,0,1,.082-.272.345.345,0,0,1,.245-.109.265.265,0,0,1,.245.109.406.406,0,0,1,.082.272v3.454a2.768,2.768,0,0,1,.9-.789,2.467,2.467,0,0,1,1.17-.272A2.866,2.866,0,0,1,163.189,191.028Z" transform="translate(-153.832 -187.9)"/><path class="a" d="M189.025,198.462A2.89,2.89,0,0,1,190,199.6a3.628,3.628,0,0,1,.354,1.659.332.332,0,0,1-.082.245.309.309,0,0,1-.218.082h-4.6a3.037,3.037,0,0,0,.326,1.251,2.518,2.518,0,0,0,.816.87,2.115,2.115,0,0,0,1.142.3,2.58,2.58,0,0,0,.87-.163,1.55,1.55,0,0,0,.68-.435.536.536,0,0,1,.218-.109.247.247,0,0,1,.19.082.332.332,0,0,1,.109.245.247.247,0,0,1-.109.218,2.815,2.815,0,0,1-.925.571,2.678,2.678,0,0,1-1.088.218,2.782,2.782,0,0,1-1.55-.435,2.929,2.929,0,0,1-1.061-1.17,3.959,3.959,0,0,1-.381-1.714,3.785,3.785,0,0,1,.354-1.714,2.665,2.665,0,0,1,1.006-1.17,2.736,2.736,0,0,1,1.469-.435A3.233,3.233,0,0,1,189.025,198.462Zm-2.883.87a2.82,2.82,0,0,0-.707,1.632H189.7a2.617,2.617,0,0,0-.653-1.632,1.93,1.93,0,0,0-1.469-.626A1.957,1.957,0,0,0,186.142,199.333Z" transform="translate(-172.541 -195.253)"/><path class="a" d="M227.151,191.182a3.155,3.155,0,0,1,1.115,1.2,3.514,3.514,0,0,1,.408,1.686,3.622,3.622,0,0,1-.408,1.714,2.958,2.958,0,0,1-1.115,1.2,3.028,3.028,0,0,1-3.128,0,3.284,3.284,0,0,1-1.115-1.17,3.408,3.408,0,0,1-.408-1.659v-5.767a.46.46,0,0,1,.082-.272.345.345,0,0,1,.245-.109.265.265,0,0,1,.245.109.406.406,0,0,1,.082.272v3.727a2.891,2.891,0,0,1,.979-1.006,2.733,2.733,0,0,1,1.414-.354A3.221,3.221,0,0,1,227.151,191.182Zm-.354,5.223a2.674,2.674,0,0,0,.87-.952,3,3,0,0,0,0-2.72,2.274,2.274,0,0,0-.87-.952,2.305,2.305,0,0,0-1.224-.354,2.088,2.088,0,0,0-1.224.354,2.465,2.465,0,0,0-.87.952,2.852,2.852,0,0,0-.3,1.36,3.213,3.213,0,0,0,.3,1.36,2.274,2.274,0,0,0,.87.952,2.3,2.3,0,0,0,2.448,0Z" transform="translate(-200.059 -187.973)"/><path class="a" d="M256.213,198.579a.406.406,0,0,1,.082.272v5.821a.333.333,0,0,1-.082.245.345.345,0,0,1-.245.109.332.332,0,0,1-.245-.109.38.38,0,0,1-.082-.245v-.626a2.768,2.768,0,0,1-.9.789,2.467,2.467,0,0,1-1.17.272,2.833,2.833,0,0,1-1.442-.354,2.561,2.561,0,0,1-.979-1.034,3.439,3.439,0,0,1-.354-1.632v-3.21a.333.333,0,0,1,.082-.245.345.345,0,0,1,.245-.109.332.332,0,0,1,.245.109.38.38,0,0,1,.082.245v3.21a2.335,2.335,0,0,0,.6,1.741,1.988,1.988,0,0,0,1.523.6,2.339,2.339,0,0,0,1.061-.245,1.845,1.845,0,0,0,.762-.68,1.687,1.687,0,0,0,.272-.952v-3.645a.46.46,0,0,1,.082-.272.345.345,0,0,1,.245-.109A.147.147,0,0,1,256.213,198.579Z" transform="translate(-220.662 -195.614)"/><path class="a" d="M278.288,204.692a2.48,2.48,0,0,1-1.006-.734.309.309,0,0,1-.082-.218.378.378,0,0,1,.136-.272.393.393,0,0,1,.19-.054.286.286,0,0,1,.245.136,2.561,2.561,0,0,0,3.046.408,1.07,1.07,0,0,0,.408-.87c0-.626-.571-1.034-1.686-1.2a3.251,3.251,0,0,1-1.6-.626,1.43,1.43,0,0,1-.544-1.115,1.646,1.646,0,0,1,.6-1.36,2.277,2.277,0,0,1,1.523-.49,2.344,2.344,0,0,1,2.094,1.061.259.259,0,0,1,.054.19.331.331,0,0,1-.163.272,1.068,1.068,0,0,1-.163.054.331.331,0,0,1-.272-.163,1.851,1.851,0,0,0-1.578-.789,1.646,1.646,0,0,0-1.061.326.956.956,0,0,0-.408.789.916.916,0,0,0,.381.762,3.124,3.124,0,0,0,1.278.435,2.944,2.944,0,0,1,1.659.68,1.669,1.669,0,0,1,.517,1.2,1.63,1.63,0,0,1-.326.979,2.164,2.164,0,0,1-.87.653,2.8,2.8,0,0,1-1.17.218A3.986,3.986,0,0,1,278.288,204.692Z" transform="translate(-239.881 -195.471)"/><path class="a" d="M300.136,190.252a.668.668,0,0,1-.136-.408.554.554,0,0,1,.163-.408.45.45,0,0,1,.354-.136.573.573,0,0,1,.354.136.468.468,0,0,1,.136.408.668.668,0,0,1-.136.408.494.494,0,0,1-.381.163A.479.479,0,0,1,300.136,190.252Zm.136,7.943a.38.38,0,0,1-.082-.245v-5.821a.459.459,0,0,1,.082-.272.345.345,0,0,1,.245-.109.265.265,0,0,1,.245.109.406.406,0,0,1,.082.272v5.821a.333.333,0,0,1-.082.245.345.345,0,0,1-.245.109A.3.3,0,0,1,300.272,198.195Z" transform="translate(-256.479 -188.919)"/><path class="a" d="M315.289,198.308a2.561,2.561,0,0,1,.979,1.034,3.438,3.438,0,0,1,.354,1.632v3.21a.333.333,0,0,1-.082.245.345.345,0,0,1-.245.109.332.332,0,0,1-.245-.109.38.38,0,0,1-.082-.245v-3.21a2.335,2.335,0,0,0-.6-1.741,1.988,1.988,0,0,0-1.523-.6,2.339,2.339,0,0,0-1.061.245,1.845,1.845,0,0,0-.762.68,1.687,1.687,0,0,0-.272.952v3.645a.332.332,0,0,1-.082.245.345.345,0,0,1-.245.109.332.332,0,0,1-.245-.109.38.38,0,0,1-.082-.245v-5.821a.459.459,0,0,1,.082-.272.345.345,0,0,1,.245-.109.265.265,0,0,1,.245.109.406.406,0,0,1,.082.272v.626a2.768,2.768,0,0,1,.9-.789,2.467,2.467,0,0,1,1.17-.272A3.444,3.444,0,0,1,315.289,198.308Z" transform="translate(-264.56 -195.18)"/><path class="a" d="M341.125,198.462a2.89,2.89,0,0,1,.979,1.142,3.628,3.628,0,0,1,.354,1.659.333.333,0,0,1-.082.245.309.309,0,0,1-.218.082h-4.6a3.037,3.037,0,0,0,.326,1.251,2.518,2.518,0,0,0,.816.87,2.115,2.115,0,0,0,1.142.3,2.58,2.58,0,0,0,.87-.163,1.55,1.55,0,0,0,.68-.435.536.536,0,0,1,.218-.109.247.247,0,0,1,.19.082.332.332,0,0,1,.109.245.247.247,0,0,1-.109.218,2.815,2.815,0,0,1-.925.571,2.678,2.678,0,0,1-1.088.218,2.782,2.782,0,0,1-1.55-.435,2.929,2.929,0,0,1-1.061-1.17,3.959,3.959,0,0,1-.381-1.714,3.785,3.785,0,0,1,.354-1.714,2.665,2.665,0,0,1,1.006-1.17,2.736,2.736,0,0,1,1.469-.435A3.134,3.134,0,0,1,341.125,198.462Zm-2.856.87a2.819,2.819,0,0,0-.707,1.632h4.271a2.617,2.617,0,0,0-.653-1.632,2.005,2.005,0,0,0-2.91,0Z" transform="translate(-283.269 -195.253)"/><path class="a" d="M362.888,204.692a2.48,2.48,0,0,1-1.006-.734.309.309,0,0,1-.082-.218.378.378,0,0,1,.136-.272.393.393,0,0,1,.19-.054.286.286,0,0,1,.245.136,2.561,2.561,0,0,0,3.046.408,1.07,1.07,0,0,0,.408-.87c0-.626-.571-1.034-1.686-1.2a3.251,3.251,0,0,1-1.6-.626,1.43,1.43,0,0,1-.544-1.115,1.646,1.646,0,0,1,.6-1.36,2.277,2.277,0,0,1,1.523-.49,2.344,2.344,0,0,1,2.094,1.061.259.259,0,0,1,.054.19.331.331,0,0,1-.163.272,1.068,1.068,0,0,1-.163.054.331.331,0,0,1-.272-.163,1.851,1.851,0,0,0-1.578-.789,1.646,1.646,0,0,0-1.061.326.956.956,0,0,0-.408.789.916.916,0,0,0,.381.762,3.124,3.124,0,0,0,1.278.435,2.944,2.944,0,0,1,1.659.68,1.669,1.669,0,0,1,.517,1.2,1.63,1.63,0,0,1-.326.979,2.164,2.164,0,0,1-.87.653,2.8,2.8,0,0,1-1.17.218A3.986,3.986,0,0,1,362.888,204.692Z" transform="translate(-301.469 -195.471)"/><path class="a" d="M384.488,204.692a2.48,2.48,0,0,1-1.006-.734.309.309,0,0,1-.082-.218.378.378,0,0,1,.136-.272.393.393,0,0,1,.19-.054.286.286,0,0,1,.245.136,2.561,2.561,0,0,0,3.046.408,1.07,1.07,0,0,0,.408-.87c0-.626-.571-1.034-1.686-1.2a3.251,3.251,0,0,1-1.6-.626,1.43,1.43,0,0,1-.544-1.115,1.646,1.646,0,0,1,.6-1.36,2.277,2.277,0,0,1,1.523-.49,2.344,2.344,0,0,1,2.094,1.061.259.259,0,0,1,.054.19.331.331,0,0,1-.163.272,1.069,1.069,0,0,1-.163.054.331.331,0,0,1-.272-.163,1.851,1.851,0,0,0-1.578-.789,1.646,1.646,0,0,0-1.061.326.956.956,0,0,0-.408.789.916.916,0,0,0,.381.762,3.124,3.124,0,0,0,1.278.435,2.944,2.944,0,0,1,1.659.68,1.668,1.668,0,0,1,.517,1.2,1.63,1.63,0,0,1-.326.979,2.164,2.164,0,0,1-.87.653,2.8,2.8,0,0,1-1.17.218A3.986,3.986,0,0,1,384.488,204.692Z" transform="translate(-317.193 -195.471)"/><path class="a" d="M422.451,191.182a3.155,3.155,0,0,1,1.115,1.2,3.515,3.515,0,0,1,.408,1.686,3.623,3.623,0,0,1-.408,1.714,2.958,2.958,0,0,1-1.115,1.2,2.872,2.872,0,0,1-1.578.435,2.782,2.782,0,0,1-1.55-.435,3.077,3.077,0,0,1-1.115-1.17,3.408,3.408,0,0,1-.408-1.659v-5.767a.46.46,0,0,1,.082-.272.345.345,0,0,1,.245-.109.265.265,0,0,1,.245.109.406.406,0,0,1,.082.272v3.727a2.891,2.891,0,0,1,.979-1.006,2.733,2.733,0,0,1,1.414-.354A3.073,3.073,0,0,1,422.451,191.182Zm-.326,5.223a2.674,2.674,0,0,0,.87-.952,3,3,0,0,0,0-2.72,2.274,2.274,0,0,0-.87-.952,2.305,2.305,0,0,0-1.224-.354,2.088,2.088,0,0,0-1.224.354,2.465,2.465,0,0,0-.87.952,2.852,2.852,0,0,0-.3,1.36,3.214,3.214,0,0,0,.3,1.36,2.274,2.274,0,0,0,.87.952,2.088,2.088,0,0,0,1.224.354A2.209,2.209,0,0,0,422.125,196.405Z" transform="translate(-342.236 -187.973)"/><path class="a" d="M446.108,196.886a2.3,2.3,0,0,1-.408-1.414v-6.991a.459.459,0,0,1,.082-.272.345.345,0,0,1,.245-.109.265.265,0,0,1,.245.109.406.406,0,0,1,.082.272v6.991a1.825,1.825,0,0,0,.218.9.606.606,0,0,0,.544.354h.272a.205.205,0,0,1,.19.109.406.406,0,0,1,.082.272.333.333,0,0,1-.082.245.345.345,0,0,1-.245.109h-.218A1.293,1.293,0,0,1,446.108,196.886Z" transform="translate(-362.547 -188.046)"/><path class="a" d="M457.223,204.429a3.155,3.155,0,0,1-1.115-1.2,3.514,3.514,0,0,1-.408-1.686,3.622,3.622,0,0,1,.408-1.714,2.958,2.958,0,0,1,1.115-1.2,3.028,3.028,0,0,1,3.128,0,3.155,3.155,0,0,1,1.115,1.2,3.622,3.622,0,0,1,.408,1.714,3.439,3.439,0,0,1-.408,1.686,2.958,2.958,0,0,1-1.115,1.2,2.782,2.782,0,0,1-1.55.435A3.046,3.046,0,0,1,457.223,204.429Zm2.8-.6a2.464,2.464,0,0,0,.87-.952,2.852,2.852,0,0,0,.3-1.36,3.213,3.213,0,0,0-.3-1.36,2.274,2.274,0,0,0-.87-.952,2.3,2.3,0,0,0-2.448,0,2.673,2.673,0,0,0-.87.952,3,3,0,0,0,0,2.72,2.274,2.274,0,0,0,.87.952,2.3,2.3,0,0,0,1.224.354A2.147,2.147,0,0,0,460.025,203.831Z" transform="translate(-369.827 -195.398)"/><path class="a" d="M484.642,204.429a2.833,2.833,0,0,1-1.061-1.2,3.5,3.5,0,0,1-.381-1.686,3.946,3.946,0,0,1,.354-1.714,2.9,2.9,0,0,1,1.006-1.2A2.5,2.5,0,0,1,486,198.2a2.854,2.854,0,0,1,1.278.3,2.781,2.781,0,0,1,1.006.87.362.362,0,0,1,.082.19.331.331,0,0,1-.163.272.235.235,0,0,1-.163.082.286.286,0,0,1-.245-.136,2.167,2.167,0,0,0-1.8-.9,2.074,2.074,0,0,0-1.142.326,2.239,2.239,0,0,0-.762.952,3.382,3.382,0,0,0,.027,2.72,2.16,2.16,0,0,0,.816.952,2.283,2.283,0,0,0,1.2.354,2.1,2.1,0,0,0,1.55-.571.268.268,0,0,1,.408-.027.349.349,0,0,1,.109.272.309.309,0,0,1-.082.218,2.6,2.6,0,0,1-.9.6,2.984,2.984,0,0,1-1.088.218A3.217,3.217,0,0,1,484.642,204.429Z" transform="translate(-389.847 -195.398)"/><path class="a" d="M512.9,197.2a.332.332,0,0,1-.109.245c-.082.054-.136.109-.19.109a.278.278,0,0,1-.218-.136l-2.394-3.155-1.034,1.006v1.9a.333.333,0,0,1-.082.245.345.345,0,0,1-.245.109.332.332,0,0,1-.245-.109.38.38,0,0,1-.082-.245v-8.6a.46.46,0,0,1,.082-.272.345.345,0,0,1,.245-.109.265.265,0,0,1,.245.109.406.406,0,0,1,.082.272v5.848l3.4-3.373c.082-.054.136-.109.218-.109a.281.281,0,0,1,.218.109c.054.082.109.136.109.218a.247.247,0,0,1-.109.218l-2.312,2.312,2.394,3.182C512.87,197.04,512.9,197.122,512.9,197.2Z" transform="translate(-408.12 -188.118)"/><path class="a" d="M530.942,204.429a2.833,2.833,0,0,1-1.061-1.2,3.5,3.5,0,0,1-.381-1.686,3.947,3.947,0,0,1,.354-1.714,2.9,2.9,0,0,1,1.006-1.2,2.5,2.5,0,0,1,1.442-.435,2.854,2.854,0,0,1,1.278.3,2.782,2.782,0,0,1,1.006.87.362.362,0,0,1,.082.19.331.331,0,0,1-.163.272.235.235,0,0,1-.163.082.286.286,0,0,1-.245-.136,2.167,2.167,0,0,0-1.8-.9,2.075,2.075,0,0,0-1.142.326,2.24,2.24,0,0,0-.762.952,3.382,3.382,0,0,0,.027,2.72,2.16,2.16,0,0,0,.816.952,2.283,2.283,0,0,0,1.2.354,2.1,2.1,0,0,0,1.55-.571.268.268,0,0,1,.408-.027.349.349,0,0,1,.109.272.309.309,0,0,1-.082.218,2.6,2.6,0,0,1-.9.6,2.985,2.985,0,0,1-1.088.218A3.122,3.122,0,0,1,530.942,204.429Z" transform="translate(-423.553 -195.398)"/><path class="a" d="M558.689,191.028a2.56,2.56,0,0,1,.979,1.034,3.438,3.438,0,0,1,.354,1.632v3.21a.333.333,0,0,1-.082.245.345.345,0,0,1-.245.109.332.332,0,0,1-.245-.109.379.379,0,0,1-.082-.245v-3.21a2.335,2.335,0,0,0-.6-1.741,2.029,2.029,0,0,0-1.523-.6,2.339,2.339,0,0,0-1.061.245,1.845,1.845,0,0,0-.762.68,1.687,1.687,0,0,0-.272.952v3.645a.333.333,0,0,1-.082.245.345.345,0,0,1-.245.109.332.332,0,0,1-.245-.109.38.38,0,0,1-.082-.245v-8.6a.459.459,0,0,1,.082-.272.345.345,0,0,1,.245-.109.265.265,0,0,1,.245.109.406.406,0,0,1,.082.272v3.454a2.768,2.768,0,0,1,.9-.789,2.467,2.467,0,0,1,1.17-.272A2.866,2.866,0,0,1,558.689,191.028Z" transform="translate(-441.753 -187.9)"/><path class="a" d="M585.124,198.6a3.155,3.155,0,0,1,1.115,1.2,3.623,3.623,0,0,1,.408,1.714v2.91a.333.333,0,0,1-.082.245.345.345,0,0,1-.245.109.332.332,0,0,1-.245-.109.379.379,0,0,1-.082-.245V203.5a2.678,2.678,0,0,1-.979,1.006,2.733,2.733,0,0,1-1.414.354,2.937,2.937,0,0,1-1.578-.435,3.155,3.155,0,0,1-1.115-1.2,3.514,3.514,0,0,1-.408-1.686,3.622,3.622,0,0,1,.408-1.714,2.958,2.958,0,0,1,1.115-1.2,2.81,2.81,0,0,1,1.578-.435A2.854,2.854,0,0,1,585.124,198.6Zm-.354,5.223a2.465,2.465,0,0,0,.87-.952,2.852,2.852,0,0,0,.3-1.36,3.214,3.214,0,0,0-.3-1.36,2.274,2.274,0,0,0-.87-.952,2.3,2.3,0,0,0-2.448,0,2.675,2.675,0,0,0-.87.952,3,3,0,0,0,0,2.72,2.275,2.275,0,0,0,.87.952,2.305,2.305,0,0,0,1.224.354A2.088,2.088,0,0,0,584.771,203.823Z" transform="translate(-460.681 -195.39)"/><path class="a" d="M609.336,190.252a.668.668,0,0,1-.136-.408.554.554,0,0,1,.163-.408.45.45,0,0,1,.354-.136.573.573,0,0,1,.354.136.5.5,0,0,1,.136.408.668.668,0,0,1-.136.408.494.494,0,0,1-.381.163A.4.4,0,0,1,609.336,190.252Zm.136,7.943a.38.38,0,0,1-.082-.245v-5.821a.459.459,0,0,1,.082-.272.345.345,0,0,1,.245-.109.265.265,0,0,1,.245.109.406.406,0,0,1,.082.272v5.821a.333.333,0,0,1-.082.245.345.345,0,0,1-.245.109A.265.265,0,0,1,609.472,198.195Z" transform="translate(-481.574 -188.919)"/><path class="a" d="M624.489,198.308a2.561,2.561,0,0,1,.979,1.034,3.438,3.438,0,0,1,.354,1.632v3.21a.333.333,0,0,1-.082.245.345.345,0,0,1-.245.109.332.332,0,0,1-.245-.109.379.379,0,0,1-.082-.245v-3.21a2.335,2.335,0,0,0-.6-1.741,2.029,2.029,0,0,0-1.523-.6,2.339,2.339,0,0,0-1.061.245,1.846,1.846,0,0,0-.762.68,1.688,1.688,0,0,0-.272.952v3.645a.333.333,0,0,1-.082.245.345.345,0,0,1-.245.109.332.332,0,0,1-.245-.109.38.38,0,0,1-.082-.245v-5.821a.46.46,0,0,1,.082-.272.345.345,0,0,1,.245-.109.265.265,0,0,1,.245.109.406.406,0,0,1,.082.272v.626a2.768,2.768,0,0,1,.9-.789,2.468,2.468,0,0,1,1.17-.272A3.559,3.559,0,0,1,624.489,198.308Z" transform="translate(-489.655 -195.18)"/></g></g></svg>