<svg xmlns="http://www.w3.org/2000/svg" width="17.677" height="18.061" viewBox="0 0 17.677 18.061"><defs><style>.a{fill:#4285f4;}.b{fill:#34a853;}.c{fill:#fbbc05;}.d{fill:#ea4335;}</style></defs><g transform="translate(26.754 -39.239)"><path class="a" d="M-6.107,50.947a10.463,10.463,0,0,0-.143-1.708h-8.5v3.394h4.869a4.192,4.192,0,0,1-1.806,2.694v2.258h2.9A8.829,8.829,0,0,0-6.107,50.947Z" transform="translate(-2.97 -2.475)"/><path class="b" d="M-17.4,60.836a8.6,8.6,0,0,0,5.968-2.19l-2.9-2.258a5.448,5.448,0,0,1-3.063.873,5.393,5.393,0,0,1-5.065-3.733h-3v2.325A9.017,9.017,0,0,0-17.4,60.836Z" transform="translate(-0.319 -3.536)"/><path class="c" d="M-22.788,51.631a5.24,5.24,0,0,1-.286-1.723,5.444,5.444,0,0,1,.286-1.723V45.859h-3a8.926,8.926,0,0,0-.971,4.049,8.926,8.926,0,0,0,.971,4.049Z" transform="translate(0 -1.638)"/><path class="d" d="M-17.4,42.814a4.9,4.9,0,0,1,3.462,1.355l2.574-2.574A8.634,8.634,0,0,0-17.4,39.239a9.017,9.017,0,0,0-8.06,4.982l3,2.325A5.393,5.393,0,0,1-17.4,42.814Z" transform="translate(-0.319)"/></g></svg>