<svg xmlns="http://www.w3.org/2000/svg" width="93.241" height="30.046" viewBox="0 0 93.241 30.046"><defs><style>.a{fill:#171717;}.b{fill:#005397;}</style></defs><g transform="translate(147.406 47.5)"><g transform="translate(-147.406 -47.5)"><g transform="translate(0)"><g transform="translate(77.516 6.662)"><path class="a" d="M509.426,8.978a7.851,7.851,0,0,1,3.865,6.907V22.28a1.45,1.45,0,0,1-.411,1.043,1.379,1.379,0,0,1-1.039.411,1.429,1.429,0,0,1-1.037-.411,1.387,1.387,0,0,1-.411-1.043V21.214a7.09,7.09,0,0,1-11.861-1.283,8.63,8.63,0,0,1-.965-4.047,8.177,8.177,0,0,1,1.014-4.046,7.348,7.348,0,0,1,2.852-2.859,8.181,8.181,0,0,1,7.994,0Zm-1.4,11.534a4.752,4.752,0,0,0,1.812-1.913,5.74,5.74,0,0,0,.653-2.739,5.661,5.661,0,0,0-.653-2.737,4.816,4.816,0,0,0-1.812-1.938,5.1,5.1,0,0,0-5.168,0,4.833,4.833,0,0,0-1.812,1.938,5.821,5.821,0,0,0-.677,2.737,5.54,5.54,0,0,0,.677,2.739,5.113,5.113,0,0,0,1.812,1.913,4.917,4.917,0,0,0,2.584.7A4.57,4.57,0,0,0,508.024,20.512Z" transform="translate(-497.566 -7.935)"/></g><g transform="translate(0 1.066)"><path class="a" d="M-133.443,22.689a1.238,1.238,0,0,1-.919.339h-10.483a4.959,4.959,0,0,0,1.739,3.125,5.512,5.512,0,0,0,3.551,1.188,4.848,4.848,0,0,0,1.716-.316,4.965,4.965,0,0,0,1.473-.75,1.3,1.3,0,0,1,.917-.291,1.1,1.1,0,0,1,.822.291,1.328,1.328,0,0,1,.508.944,1.01,1.01,0,0,1-.436.824,7.322,7.322,0,0,1-2.342,1.211,8.33,8.33,0,0,1-2.658.485,8.3,8.3,0,0,1-4.059-.969,6.738,6.738,0,0,1-2.778-2.737,7.716,7.716,0,0,1-1.014-3.974,8.229,8.229,0,0,1,.942-3.951,6.88,6.88,0,0,1,2.658-2.737,7.53,7.53,0,0,1,3.84-.969,6.9,6.9,0,0,1,3.671.944,6.191,6.191,0,0,1,2.367,2.617,8.621,8.621,0,0,1,.822,3.877A1.014,1.014,0,0,1-133.443,22.689Zm-9.783-4.823a5.089,5.089,0,0,0-1.6,2.956h9.2a4.92,4.92,0,0,0-1.376-2.956,3.989,3.989,0,0,0-2.948-1.115A4.939,4.939,0,0,0-143.226,17.866Z" transform="translate(147.406 -8.029)"/><path class="a" d="M5.483-38.265a1.427,1.427,0,0,1,.388,1.018v12.623A7.786,7.786,0,0,1,4.855-20.7a7.64,7.64,0,0,1-2.729,2.762,7.462,7.462,0,0,1-3.84,1.018A7.637,7.637,0,0,1-5.6-17.936,7.294,7.294,0,0,1-8.332-20.7a7.645,7.645,0,0,1-.991-3.925,8.484,8.484,0,0,1,.917-3.925,7.092,7.092,0,0,1,2.537-2.737,6.6,6.6,0,0,1,3.6-.994A6.533,6.533,0,0,1,.7-31.6a6.726,6.726,0,0,1,2.344,1.867v-7.488a1.316,1.316,0,0,1,.411-1.018,1.462,1.462,0,0,1,1.014-.388A1.341,1.341,0,0,1,5.483-38.265ZM.775-20.092a4.472,4.472,0,0,0,1.739-1.867,5.37,5.37,0,0,0,.628-2.665,5.534,5.534,0,0,0-.628-2.64A5.2,5.2,0,0,0,.775-29.131a4.946,4.946,0,0,0-2.512-.678,4.773,4.773,0,0,0-2.512.678,4.671,4.671,0,0,0-1.764,1.867,5.352,5.352,0,0,0-.651,2.64,5.514,5.514,0,0,0,.651,2.665A5.02,5.02,0,0,0-4.25-20.092a4.933,4.933,0,0,0,2.512.679A4.6,4.6,0,0,0,.775-20.092Z" transform="translate(25.918 38.629)"/><path class="a" d="M166.21,22.505a1.239,1.239,0,0,1-.919.339h-10.46a4.961,4.961,0,0,0,1.741,3.125,5.507,5.507,0,0,0,3.549,1.188,5.077,5.077,0,0,0,1.741-.316,4.968,4.968,0,0,0,1.473-.75,1.3,1.3,0,0,1,.917-.291,1.1,1.1,0,0,1,.822.291,1.329,1.329,0,0,1,.508.944,1.011,1.011,0,0,1-.436.824,7.319,7.319,0,0,1-2.342,1.211,8.355,8.355,0,0,1-6.717-.485,6.936,6.936,0,0,1-2.8-2.737,7.714,7.714,0,0,1-1.014-3.974,8.249,8.249,0,0,1,.942-3.974,6.9,6.9,0,0,1,2.656-2.739,7.556,7.556,0,0,1,3.842-.969,6.9,6.9,0,0,1,3.672.946,6.2,6.2,0,0,1,2.367,2.617,8.65,8.65,0,0,1,.822,3.877A1.207,1.207,0,0,1,166.21,22.505Zm-9.783-4.823a5.089,5.089,0,0,0-1.6,2.956h9.2a4.918,4.918,0,0,0-1.377-2.956,3.984,3.984,0,0,0-2.946-1.115A4.944,4.944,0,0,0,156.426,17.682Z" transform="translate(-116.255 -7.845)"/></g><g transform="translate(53.649)"><path class="b" d="M379.318-47.5H373.28l-7.973,11.146,7.948,11.123h6.015l-7.923-11.123Z" transform="translate(-357.336 47.5)"/><path class="b" d="M307.365-44.2,305-47.5h-6.015l5.41,7.56Z" transform="translate(-298.983 47.5)"/><path class="b" d="M299.387,80.319H305.4l2.658-3.731-3.092-4.119Z" transform="translate(-299.338 -58.05)"/></g></g></g><g transform="translate(-128.42 -22.639)"><path class="a" d="M12.62,166.968a.265.265,0,0,1,.048.145.349.349,0,0,1-.048.144c-.025.048-.074.05-.145.05h-.12a1.1,1.1,0,0,1-.6-.171,1.03,1.03,0,0,1-.411-.436,1.415,1.415,0,0,1-.145-.63v-1.842h-.458a.185.185,0,0,1-.122-.048.205.205,0,0,1-.048-.145.269.269,0,0,1,.048-.145c.025-.048.074-.048.122-.048h.458v-1.066a.358.358,0,0,1,.048-.145.213.213,0,0,1,.145-.048.359.359,0,0,1,.145.048.271.271,0,0,1,.048.145v1.066h.773a.19.19,0,0,1,.12.048.213.213,0,0,1,.048.145.264.264,0,0,1-.048.145.179.179,0,0,1-.12.048h-.773v1.818a.841.841,0,0,0,.217.6.665.665,0,0,0,.556.242H12.5C12.523,166.895,12.571,166.943,12.62,166.968Z" transform="translate(-10.565 -162.194)"/><path class="a" d="M36.205,161.052a1.47,1.47,0,0,1,.531.558,1.747,1.747,0,0,1,.194.9v1.745a.333.333,0,0,1-.048.145.205.205,0,0,1-.145.048.324.324,0,0,1-.144-.048.251.251,0,0,1-.048-.145v-1.745a1.277,1.277,0,0,0-.314-.944,1.09,1.09,0,0,0-.822-.316,1.144,1.144,0,0,0-.58.145,1.23,1.23,0,0,0-.411.363.9.9,0,0,0-.145.51v1.987a.333.333,0,0,1-.048.145.2.2,0,0,1-.144.048.358.358,0,0,1-.145-.048.256.256,0,0,1-.048-.145v-4.7a.333.333,0,0,1,.048-.145.206.206,0,0,1,.145-.048.171.171,0,0,1,.192.194v1.89a2.039,2.039,0,0,1,.485-.436,1.131,1.131,0,0,1,.628-.145A1.716,1.716,0,0,1,36.205,161.052Z" transform="translate(-31.084 -159.356)"/><path class="a" d="M67.85,172.267a1.526,1.526,0,0,1,.533.63,1.83,1.83,0,0,1,.192.9.332.332,0,0,1-.048.145c-.023.047-.072.048-.12.048H65.894a2.018,2.018,0,0,0,.169.679,1.437,1.437,0,0,0,.436.485,1.168,1.168,0,0,0,.628.169,1.21,1.21,0,0,0,.483-.1.693.693,0,0,0,.362-.242.448.448,0,0,1,.12-.048.124.124,0,0,1,.1.048.178.178,0,0,1,.048.145.185.185,0,0,1-.048.12,1.516,1.516,0,0,1-.508.316,1.409,1.409,0,0,1-.6.12,1.433,1.433,0,0,1-.845-.242,1.8,1.8,0,0,1-.581-.63,2.1,2.1,0,0,1-.217-.944,1.945,1.945,0,0,1,.194-.946,1.424,1.424,0,0,1,.556-.63,1.533,1.533,0,0,1,.8-.242A1.606,1.606,0,0,1,67.85,172.267Zm-1.57.461a1.461,1.461,0,0,0-.386.9h2.318a1.36,1.36,0,0,0-.362-.9,1.088,1.088,0,0,0-.8-.339A1.041,1.041,0,0,0,66.28,172.728Z" transform="translate(-58.84 -170.523)"/><path class="a" d="M115.005,161.453a1.774,1.774,0,0,1,.6.655,1.984,1.984,0,0,1,.217.921,2.078,2.078,0,0,1-.217.944,1.588,1.588,0,0,1-.6.655,1.477,1.477,0,0,1-.87.242,1.45,1.45,0,0,1-.845-.242,1.723,1.723,0,0,1-.822-1.527v-3.15a.358.358,0,0,1,.048-.145.214.214,0,0,1,.145-.048.359.359,0,0,1,.145.048.27.27,0,0,1,.048.145v2.035a1.937,1.937,0,0,1,.531-.556,1.363,1.363,0,0,1,.774-.194A1.516,1.516,0,0,1,115.005,161.453Zm-.194,2.859a1.612,1.612,0,0,0,.483-.508,1.55,1.55,0,0,0,.168-.752,1.61,1.61,0,0,0-.168-.75,1.093,1.093,0,0,0-.483-.51,1.244,1.244,0,0,0-.677-.194,1.064,1.064,0,0,0-.677.194,1.391,1.391,0,0,0-.483.51,1.564,1.564,0,0,0-.169.75,1.636,1.636,0,0,0,.169.752,1.1,1.1,0,0,0,.483.508,1.064,1.064,0,0,0,.677.194A1.228,1.228,0,0,0,114.812,164.312Z" transform="translate(-100.221 -159.709)"/><path class="a" d="M150.188,172.459a.256.256,0,0,1,.048.145v3.2a.332.332,0,0,1-.048.145.2.2,0,0,1-.143.048.331.331,0,0,1-.145-.048.25.25,0,0,1-.048-.145v-.339a2.068,2.068,0,0,1-.483.436,1.408,1.408,0,0,1-.628.145,1.362,1.362,0,0,1-.774-.194,1.463,1.463,0,0,1-.531-.556,1.755,1.755,0,0,1-.194-.9v-1.745a.331.331,0,0,1,.048-.145.205.205,0,0,1,.145-.048.317.317,0,0,1,.143.048.251.251,0,0,1,.048.145V174.4a1.281,1.281,0,0,0,.314.946,1.1,1.1,0,0,0,.822.314,1.143,1.143,0,0,0,.58-.145,1.209,1.209,0,0,0,.411-.363.9.9,0,0,0,.145-.51v-1.987a.331.331,0,0,1,.048-.145.2.2,0,0,1,.143-.048C150.117,172.41,150.165,172.435,150.188,172.459Z" transform="translate(-130.815 -170.86)"/><path class="a" d="M180.41,175.554a1.33,1.33,0,0,1-.554-.413.176.176,0,0,1-.048-.12.208.208,0,0,1,.072-.145c.025-.025.048-.025.1-.025a.211.211,0,0,1,.145.074,1.106,1.106,0,0,0,.965.411,1.119,1.119,0,0,0,.7-.169.617.617,0,0,0,.217-.485c0-.339-.314-.558-.919-.655a1.589,1.589,0,0,1-.868-.339.765.765,0,0,1-.291-.6.941.941,0,0,1,.314-.752,1.29,1.29,0,0,1,.822-.266,1.248,1.248,0,0,1,1.134.582.139.139,0,0,1,.025.1.177.177,0,0,1-.1.145.187.187,0,0,1-.1.023.173.173,0,0,1-.145-.1,1,1,0,0,0-.868-.436.862.862,0,0,0-.58.171.516.516,0,0,0-.217.436.475.475,0,0,0,.217.411,2.05,2.05,0,0,0,.7.242,1.529,1.529,0,0,1,.894.364.961.961,0,0,1,.291.653.866.866,0,0,1-.171.533,1.269,1.269,0,0,1-.483.364,1.382,1.382,0,0,1-.628.12A1.2,1.2,0,0,1,180.41,175.554Z" transform="translate(-159.467 -170.538)"/><path class="a" d="M208.009,161.671a.338.338,0,0,1-.074-.217.266.266,0,0,1,.1-.219.324.324,0,0,1,.194-.074.278.278,0,0,1,.194.074.367.367,0,0,1,0,.436.31.31,0,0,1-.219.1A.473.473,0,0,1,208.009,161.671Zm.072,4.338a.27.27,0,0,1-.048-.145v-3.175a.358.358,0,0,1,.048-.145.21.21,0,0,1,.145-.048.171.171,0,0,1,.194.194v3.175a.358.358,0,0,1-.048.145.213.213,0,0,1-.145.048A.264.264,0,0,1,208.081,166.009Z" transform="translate(-184.214 -160.944)"/><path class="a" d="M223.528,171.879a1.47,1.47,0,0,1,.531.558,1.748,1.748,0,0,1,.194.9v1.745a.363.363,0,0,1-.048.145.21.21,0,0,1-.145.048.331.331,0,0,1-.145-.048.265.265,0,0,1-.048-.145v-1.745a1.268,1.268,0,0,0-.314-.944,1.085,1.085,0,0,0-.82-.316,1.143,1.143,0,0,0-.58.145,1.212,1.212,0,0,0-.411.363.96.96,0,0,0-.145.51v1.987a.332.332,0,0,1-.048.145.205.205,0,0,1-.145.048.35.35,0,0,1-.144-.048.256.256,0,0,1-.048-.145V171.9a.316.316,0,0,1,.048-.145.2.2,0,0,1,.144-.048.331.331,0,0,1,.145.048.251.251,0,0,1,.048.145v.339a2.068,2.068,0,0,1,.483-.436,1.408,1.408,0,0,1,.628-.145A1.937,1.937,0,0,1,223.528,171.879Z" transform="translate(-195.894 -170.183)"/><path class="a" d="M255.173,172.267a1.521,1.521,0,0,1,.531.63,1.81,1.81,0,0,1,.194.9.331.331,0,0,1-.048.145.185.185,0,0,1-.12.048h-2.512a1.97,1.97,0,0,0,.168.679,1.434,1.434,0,0,0,.434.485,1.178,1.178,0,0,0,.628.169,1.218,1.218,0,0,0,.485-.1.693.693,0,0,0,.362-.242.4.4,0,0,1,.12-.048.125.125,0,0,1,.1.048.179.179,0,0,1,.048.145.187.187,0,0,1-.048.12,1.517,1.517,0,0,1-.508.316,1.411,1.411,0,0,1-.6.12,1.437,1.437,0,0,1-.845-.242,1.813,1.813,0,0,1-.579-.63,2.1,2.1,0,0,1-.217-.944,1.946,1.946,0,0,1,.194-.946,1.434,1.434,0,0,1,.554-.63,1.546,1.546,0,0,1,.8-.242A1.5,1.5,0,0,1,255.173,172.267Zm-1.545.461a1.462,1.462,0,0,0-.388.9h2.32a1.378,1.378,0,0,0-.363-.9,1.092,1.092,0,0,0-.8-.339A1,1,0,0,0,253.628,172.728Z" transform="translate(-223.65 -170.523)"/><path class="a" d="M284.523,175.554a1.331,1.331,0,0,1-.554-.413.176.176,0,0,1-.048-.12.208.208,0,0,1,.072-.145c.023-.025.048-.025.1-.025a.211.211,0,0,1,.145.074,1.41,1.41,0,0,0,1.665.242.613.613,0,0,0,.219-.485c0-.339-.314-.558-.919-.655a1.6,1.6,0,0,1-.87-.339.769.769,0,0,1-.289-.6.941.941,0,0,1,.314-.752,1.29,1.29,0,0,1,.822-.266,1.248,1.248,0,0,1,1.134.582.139.139,0,0,1,.025.1.177.177,0,0,1-.1.145.191.191,0,0,1-.1.023.173.173,0,0,1-.145-.1,1,1,0,0,0-.868-.436.86.86,0,0,0-.579.171.518.518,0,0,0-.219.436.477.477,0,0,0,.219.411,2.044,2.044,0,0,0,.7.242,1.529,1.529,0,0,1,.894.364.961.961,0,0,1,.291.653.865.865,0,0,1-.171.533,1.268,1.268,0,0,1-.483.364,1.386,1.386,0,0,1-.628.12A1.244,1.244,0,0,1,284.523,175.554Z" transform="translate(-251.067 -170.538)"/><path class="a" d="M311.251,175.554a1.342,1.342,0,0,1-.554-.413.174.174,0,0,1-.048-.12.207.207,0,0,1,.071-.145c.025-.025.048-.025.1-.025a.211.211,0,0,1,.145.074,1.414,1.414,0,0,0,1.667.242.611.611,0,0,0,.217-.485c0-.339-.314-.558-.919-.655a1.59,1.59,0,0,1-.869-.339.765.765,0,0,1-.291-.6.94.94,0,0,1,.314-.752,1.289,1.289,0,0,1,.822-.266,1.25,1.25,0,0,1,1.136.582.148.148,0,0,1,.023.1.173.173,0,0,1-.1.145.187.187,0,0,1-.1.023.171.171,0,0,1-.143-.1,1.006,1.006,0,0,0-.87-.436.865.865,0,0,0-.58.171.516.516,0,0,0-.217.436.475.475,0,0,0,.217.411,2.063,2.063,0,0,0,.7.242,1.529,1.529,0,0,1,.894.364.952.952,0,0,1,.291.653.876.876,0,0,1-.169.533,1.278,1.278,0,0,1-.485.364,1.377,1.377,0,0,1-.628.12A1.206,1.206,0,0,1,311.251,175.554Z" transform="translate(-274.583 -170.538)"/><path class="a" d="M355.588,161.453a1.774,1.774,0,0,1,.6.655,1.983,1.983,0,0,1,.217.921,2.078,2.078,0,0,1-.217.944,1.586,1.586,0,0,1-.6.655,1.527,1.527,0,0,1-.87.242,1.449,1.449,0,0,1-.845-.242,1.687,1.687,0,0,1-.6-.63,1.914,1.914,0,0,1-.217-.9v-3.15a.358.358,0,0,1,.048-.145.213.213,0,0,1,.145-.048.171.171,0,0,1,.194.194v2.035a1.933,1.933,0,0,1,.531-.556,1.364,1.364,0,0,1,.774-.194A1.464,1.464,0,0,1,355.588,161.453Zm-.194,2.859a1.611,1.611,0,0,0,.483-.508,1.569,1.569,0,0,0,.169-.752,1.63,1.63,0,0,0-.169-.75,1.092,1.092,0,0,0-.483-.51,1.244,1.244,0,0,0-.677-.194,1.106,1.106,0,0,0-.676.194,1.391,1.391,0,0,0-.483.51,1.567,1.567,0,0,0-.168.75,1.639,1.639,0,0,0,.168.752,1.1,1.1,0,0,0,.483.508,1.063,1.063,0,0,0,.676.194A1.228,1.228,0,0,0,355.394,164.312Z" transform="translate(-311.889 -159.709)"/><path class="a" d="M387.636,164.363a1.279,1.279,0,0,1-.217-.775v-3.828a.359.359,0,0,1,.048-.145.2.2,0,0,1,.145-.048.254.254,0,0,1,.145.048.263.263,0,0,1,.047.145v3.828a.945.945,0,0,0,.122.485.3.3,0,0,0,.289.194h.145a.125.125,0,0,1,.1.048.265.265,0,0,1,.048.145.349.349,0,0,1-.048.143.2.2,0,0,1-.145.05h-.12A.678.678,0,0,1,387.636,164.363Z" transform="translate(-342.127 -159.54)"/><path class="a" d="M400.707,175.272a1.775,1.775,0,0,1-.6-.655,1.984,1.984,0,0,1-.217-.921,2.079,2.079,0,0,1,.217-.944,1.586,1.586,0,0,1,.6-.655,1.482,1.482,0,0,1,.871-.242,1.45,1.45,0,0,1,.845.242,1.762,1.762,0,0,1,.6.655,2.107,2.107,0,0,1,.217.944,1.935,1.935,0,0,1-.217.921,1.593,1.593,0,0,1-.6.655,1.451,1.451,0,0,1-.845.242A1.672,1.672,0,0,1,400.707,175.272Zm1.522-.316a1.405,1.405,0,0,0,.485-.508,1.574,1.574,0,0,0,.168-.752,1.636,1.636,0,0,0-.168-.75,1.1,1.1,0,0,0-.485-.51,1.275,1.275,0,0,0-1.351,0,1.627,1.627,0,0,0-.485.51,1.566,1.566,0,0,0-.168.75,1.638,1.638,0,0,0,.168.752,1.1,1.1,0,0,0,.485.508,1.218,1.218,0,0,0,.677.194A1.281,1.281,0,0,0,402.229,174.956Z" transform="translate(-353.096 -170.353)"/><path class="a" d="M434.248,175.272a1.7,1.7,0,0,1-.58-.655,1.983,1.983,0,0,1-.217-.921,2.085,2.085,0,0,1,.192-.944,1.65,1.65,0,0,1,.556-.655,1.335,1.335,0,0,1,.773-.242,1.414,1.414,0,0,1,.7.171,1.327,1.327,0,0,1,.556.485c.023.048.048.072.048.1a.177.177,0,0,1-.1.145.13.13,0,0,1-.1.048.211.211,0,0,1-.145-.074,1.189,1.189,0,0,0-.965-.485,1.1,1.1,0,0,0-.628.171,1.24,1.24,0,0,0-.411.508,1.891,1.891,0,0,0-.145.752,1.632,1.632,0,0,0,.169.75,1,1,0,0,0,.436.508,1.2,1.2,0,0,0,.651.194,1.111,1.111,0,0,0,.845-.314c.025-.048.074-.048.122-.048a.121.121,0,0,1,.1.048.178.178,0,0,1,.048.145.176.176,0,0,1-.048.12,1.281,1.281,0,0,1-.483.316,1.682,1.682,0,0,1-.6.12A1.655,1.655,0,0,1,434.248,175.272Z" transform="translate(-382.627 -170.353)"/><path class="a" d="M466.917,164.653a.357.357,0,0,1-.048.145c-.048.025-.074.048-.1.048a.13.13,0,0,1-.12-.072l-1.3-1.721-.556.558v1.041a.329.329,0,0,1-.048.145c-.023.048-.072.048-.145.048a.323.323,0,0,1-.143-.048.251.251,0,0,1-.048-.145v-4.7a.334.334,0,0,1,.048-.145.2.2,0,0,1,.143-.048.359.359,0,0,1,.145.048.254.254,0,0,1,.048.145v3.2l1.861-1.841c.048-.023.072-.048.12-.048s.072.025.12.048a.248.248,0,0,1,.048.122.176.176,0,0,1-.048.12l-1.256,1.26,1.3,1.745C466.917,164.581,466.917,164.6,466.917,164.653Z" transform="translate(-409.86 -159.71)"/><path class="a" d="M491.328,175.272a1.7,1.7,0,0,1-.58-.655,1.986,1.986,0,0,1-.217-.921,2.085,2.085,0,0,1,.192-.944,1.65,1.65,0,0,1,.556-.655,1.336,1.336,0,0,1,.774-.242,1.415,1.415,0,0,1,.7.171,1.328,1.328,0,0,1,.556.485c.023.048.048.072.048.1a.177.177,0,0,1-.1.145.13.13,0,0,1-.1.048.211.211,0,0,1-.145-.074,1.188,1.188,0,0,0-.965-.485,1.1,1.1,0,0,0-.628.171,1.225,1.225,0,0,0-.411.508,1.891,1.891,0,0,0-.145.752,1.632,1.632,0,0,0,.169.75,1,1,0,0,0,.436.508,1.455,1.455,0,0,0,.651.194,1.11,1.11,0,0,0,.845-.314c.026-.048.074-.048.123-.048a.12.12,0,0,1,.095.048.178.178,0,0,1,.048.145.176.176,0,0,1-.048.12,1.276,1.276,0,0,1-.482.316,1.692,1.692,0,0,1-.6.12A1.574,1.574,0,0,1,491.328,175.272Z" transform="translate(-432.846 -170.353)"/><path class="a" d="M523.4,161.052a1.471,1.471,0,0,1,.531.558,1.749,1.749,0,0,1,.194.9v1.745a.358.358,0,0,1-.048.145.209.209,0,0,1-.145.048.331.331,0,0,1-.145-.048.264.264,0,0,1-.048-.145v-1.745a1.268,1.268,0,0,0-.314-.944,1.085,1.085,0,0,0-.82-.316,1.142,1.142,0,0,0-.579.145,1.229,1.229,0,0,0-.411.363.9.9,0,0,0-.145.51v1.987a.332.332,0,0,1-.048.145.2.2,0,0,1-.145.048.359.359,0,0,1-.143-.048.255.255,0,0,1-.048-.145v-4.7a.332.332,0,0,1,.048-.145.2.2,0,0,1,.143-.048.171.171,0,0,1,.194.194v1.89a2.071,2.071,0,0,1,.483-.436,1.137,1.137,0,0,1,.628-.145A1.654,1.654,0,0,1,523.4,161.052Z" transform="translate(-459.727 -159.356)"/><path class="a" d="M555.8,172.251a1.763,1.763,0,0,1,.6.655,2.08,2.08,0,0,1,.217.944v1.6a.332.332,0,0,1-.048.145c-.023.048-.072.048-.145.048a.323.323,0,0,1-.143-.048.251.251,0,0,1-.049-.145v-.508a1.677,1.677,0,0,1-.531.556,1.37,1.37,0,0,1-.773.194,1.567,1.567,0,0,1-.87-.242,1.735,1.735,0,0,1-.6-.653,1.981,1.981,0,0,1-.217-.921,2.085,2.085,0,0,1,.217-.946,1.557,1.557,0,0,1,.6-.653,1.463,1.463,0,0,1,.87-.242A1.588,1.588,0,0,1,555.8,172.251Zm-.192,2.859a1.4,1.4,0,0,0,.482-.508,1.571,1.571,0,0,0,.169-.752,1.632,1.632,0,0,0-.169-.75,1.091,1.091,0,0,0-.482-.51,1.278,1.278,0,0,0-1.353,0,1.6,1.6,0,0,0-.483.51,1.542,1.542,0,0,0-.171.75,1.612,1.612,0,0,0,.171.752,1.1,1.1,0,0,0,.483.508,1.277,1.277,0,0,0,1.353,0Z" transform="translate(-488.024 -170.506)"/><path class="a" d="M588.881,161.671a.339.339,0,0,1-.074-.217.267.267,0,0,1,.1-.219.289.289,0,0,1,.386,0,.359.359,0,0,1,0,.436.3.3,0,0,1-.217.1A.244.244,0,0,1,588.881,161.671Zm.072,4.338a.255.255,0,0,1-.048-.145v-3.175a.331.331,0,0,1,.048-.145.206.206,0,0,1,.145-.048.258.258,0,0,1,.143.048.255.255,0,0,1,.048.145v3.175a.331.331,0,0,1-.048.145c-.023.048-.072.048-.143.048A.265.265,0,0,1,588.952,166.009Z" transform="translate(-519.311 -160.944)"/><path class="a" d="M604.594,171.879a1.472,1.472,0,0,1,.531.558,1.749,1.749,0,0,1,.194.9v1.745a.331.331,0,0,1-.048.145.2.2,0,0,1-.145.048.331.331,0,0,1-.143-.048.25.25,0,0,1-.048-.145v-1.745a1.276,1.276,0,0,0-.314-.944,1.086,1.086,0,0,0-.822-.316,1.143,1.143,0,0,0-.58.145,1.228,1.228,0,0,0-.411.363.958.958,0,0,0-.146.51v1.987a.353.353,0,0,1-.047.145.213.213,0,0,1-.145.048.358.358,0,0,1-.145-.048.271.271,0,0,1-.048-.145V171.9a.342.342,0,0,1,.048-.145.2.2,0,0,1,.145-.048.254.254,0,0,1,.145.048.264.264,0,0,1,.047.145v.339a2.046,2.046,0,0,1,.485-.436,1.131,1.131,0,0,1,.628-.145A2.145,2.145,0,0,1,604.594,171.879Z" transform="translate(-531.161 -170.183)"/></g></g></svg>